 <svg  version="1.0" xmlns="http://www.w3.org/2000/svg"  width="300.000000pt" height="300.000000pt" viewBox="0 0 300.000000 300.000000"  preserveAspectRatio="xMidYMid meet">  <g transform="translate(0.000000,99.000000) scale(0.100000,-0.100000)" fill="#ffffff" stroke="none"> <path d="M70 793 c0 -8 14 -13 39 -13 l39 0 118 -295 c66 -162 124 -295 130 -295 7 0 14 9 17 20 3 11 56 144 119 295 l113 274 43 1 c28 0 42 4 40 11 -5 14 -178 16 -178 3 0 -5 15 -10 33 -12 l34 -3 -79 -192 c-43 -106 -82 -200 -86 -210 -5 -13 -30 38 -85 180 -43 109 -80 204 -84 211 -4 9 8 12 41 12 30 0 46 4 46 13 0 9 -37 12 -150 12 -113 0 -150 -3 -150 -12z m178 -45 c5 -7 36 -80 67 -163 32 -82 68 -171 82 -198 18 -37 21 -52 13 -67 -6 -11 -14 -20 -19 -20 -9 0 -181 422 -181 444 0 19 23 21 38 4z"/> <path d="M760 793 c0 -8 15 -13 40 -13 l40 0 0 -280 0 -280 -40 0 c-29 0 -40 -4 -40 -15 0 -13 23 -15 145 -15 122 0 145 2 145 15 0 11 -11 15 -40 15 l-40 0 0 280 0 280 40 0 c25 0 40 5 40 13 0 9 -36 12 -145 12 -109 0 -145 -3 -145 -12z m168 -295 l2 -258 -25 0 -25 0 0 261 0 260 23 -3 22 -3 3 -257z"/> <path d="M1084 801 c-12 -12 0 -21 29 -21 31 0 37 -6 126 -147 51 -82 97 -155 103 -164 9 -13 -1 -30 -53 -90 -35 -41 -80 -93 -98 -116 -30 -37 -40 -43 -73 -43 -27 0 -38 -4 -38 -15 0 -12 17 -15 90 -15 76 0 90 2 90 16 0 13 -8 15 -35 12 -19 -2 -35 -2 -35 -1 0 5 168 204 174 206 3 1 34 -44 70 -100 36 -57 62 -103 58 -104 -4 -1 -22 0 -39 1 -24 1 -33 -3 -33 -14 0 -14 21 -16 155 -16 131 0 155 2 155 15 0 11 -11 15 -37 15 -38 1 -38 1 -126 143 -49 78 -93 149 -99 158 -10 14 6 38 88 137 95 115 101 121 137 121 24 1 37 5 35 12 -5 16 -168 18 -168 2 0 -6 14 -13 30 -15 l31 -3 -68 -80 c-37 -44 -77 -93 -88 -108 l-21 -28 -64 102 c-36 57 -66 107 -68 111 -2 4 12 8 32 8 22 0 36 5 36 13 0 9 -36 12 -146 12 -80 0 -148 -2 -150 -4z m201 -63 c25 -35 121 -187 220 -346 89 -145 97 -174 44 -153 -15 5 -46 42 -78 93 -29 45 -61 97 -73 113 -55 83 -178 292 -178 303 0 21 48 13 65 -10z"/> <path d="M1760 796 c0 -12 10 -16 40 -16 l40 0 0 -280 0 -280 -40 0 c-29 0 -40 -4 -40 -15 0 -13 37 -15 275 -15 l275 0 0 101 c0 109 -12 126 -37 54 -15 -44 -54 -90 -95 -111 -17 -9 -59 -14 -118 -14 l-90 0 0 145 0 145 46 0 c37 0 51 -5 74 -28 16 -16 32 -45 35 -65 4 -22 13 -37 21 -37 11 0 14 27 14 140 0 112 -3 140 -14 140 -8 0 -16 -16 -20 -39 -8 -55 -53 -91 -112 -91 l-44 0 0 125 0 125 80 0 c50 0 95 -6 118 -16 43 -18 100 -69 113 -101 17 -46 29 -23 29 57 l0 80 -259 0 c-143 0 -266 3 -275 6 -11 4 -16 1 -16 -10z m171 -138 c1 -57 1 -173 0 -258 -1 -154 -6 -175 -38 -163 -10 4 -13 56 -13 257 0 139 3 256 7 259 3 4 15 7 25 7 16 0 18 -10 19 -102z"/> <path d="M2347 804 c-16 -16 -5 -24 33 -24 l40 0 0 -279 0 -280 -35 -3 c-20 -2 -36 -7 -38 -13 -1 -6 35 -11 91 -13 77 -2 92 0 92 13 0 11 -11 15 -42 15 l-43 0 0 250 c0 138 2 250 5 250 3 0 11 -10 19 -22 7 -13 90 -132 183 -265 123 -176 174 -243 188 -243 19 0 20 9 20 295 l0 295 35 0 c21 0 35 5 35 13 0 9 -25 12 -90 12 -65 0 -90 -3 -90 -12 0 -8 15 -13 40 -13 l39 0 3 -182 c3 -171 1 -209 -9 -182 -2 6 -62 95 -134 197 l-130 187 -89 0 c-48 0 -95 2 -102 5 -8 3 -17 2 -21 -1z m312 -214 c64 -91 126 -178 139 -194 14 -19 22 -42 22 -67 0 -70 -11 -59 -180 186 -57 83 -118 169 -137 192 -18 23 -33 44 -33 48 0 3 17 5 37 3 35 -3 41 -10 152 -168z"/> <path d="M747 3 c414 -2 1092 -2 1505 0 414 1 76 2 -752 2 -828 0 -1166 -1 -753 -2z"/> </g> </svg> 