<?xml version="1.0" standalone="no"?>
<!DOCTYPE svg PUBLIC "-//W3C//DTD SVG 20010904//EN"
 "http://www.w3.org/TR/2001/REC-SVG-20010904/DTD/svg10.dtd">
<svg version="1.0" xmlns="http://www.w3.org/2000/svg"
 width="100.000000pt" height="100.000000pt" viewBox="0 0 300.000000 100.000000"
 preserveAspectRatio="xMidYMid meet">
<metadata>
Created by potrace 1.10, written by Peter Selinger 2001-2011
</metadata>
<g transform="translate(0.000000,97.000000) scale(0.050000,-0.050000)"
fill="#ffffff" stroke="none">
<path d="M140 1550 c0 -21 22 -30 75 -30 l75 0 228 -565 c126 -311 240 -577
253 -592 30 -33 15 -64 309 652 l208 505 76 0 c54 0 76 9 76 30 0 24 -32 30
-170 30 -138 0 -170 -6 -170 -30 0 -20 20 -30 62 -30 51 0 60 -6 49 -35 -140
-378 -321 -785 -335 -753 -10 21 -83 205 -164 408 l-147 370 81 10 c45 6 85
21 89 35 6 19 -61 25 -293 25 -255 0 -302 -5 -302 -30z"/>
<path d="M1520 1550 c0 -22 22 -30 80 -30 l80 0 0 -560 0 -560 -80 0 c-58 0
-80 -8 -80 -30 0 -25 46 -30 290 -30 239 0 290 5 290 29 0 19 -26 31 -75 35
l-75 6 -5 555 -6 555 81 0 c58 0 80 8 80 30 0 25 -46 30 -290 30 -244 0 -290
-5 -290 -30z"/>
<path d="M2180 1551 c0 -17 24 -31 63 -35 56 -5 452 -562 456 -642 3 -61 -391
-474 -453 -474 -45 0 -66 -9 -66 -30 0 -24 32 -30 170 -30 138 0 170 6 170 30
0 20 -20 30 -60 30 -81 0 -83 -4 109 221 l169 199 87 -135 c48 -74 107 -169
132 -210 l46 -75 -71 0 c-51 0 -72 -9 -72 -30 0 -25 47 -30 300 -30 253 0 300
5 300 30 0 20 -21 30 -65 30 -60 0 -421 506 -452 634 -15 64 374 486 448 486
48 0 69 9 69 30 0 24 -31 30 -160 30 -159 0 -240 -47 -109 -64 49 -6 44 -15
-115 -210 -91 -112 -170 -205 -176 -205 -9 -1 -239 361 -257 403 -3 9 21 16
55 16 42 0 62 10 62 30 0 25 -46 30 -290 30 -239 0 -290 -5 -290 -29z"/>
<path d="M3540 1550 c0 -21 21 -30 70 -30 l70 0 0 -560 0 -560 -70 0 c-49 0
-70 -9 -70 -30 0 -26 74 -30 550 -30 l550 0 0 200 c0 223 -18 246 -80 106 -84
-191 -181 -246 -429 -246 l-171 0 0 290 0 290 81 0 c117 0 156 -29 212 -155
70 -159 89 -117 83 185 -6 256 -36 352 -64 203 -22 -115 -93 -173 -211 -173
l-101 0 0 240 0 240 174 0 c215 0 322 -45 412 -173 84 -119 94 -111 94 73 l0
160 -550 0 c-476 0 -550 -4 -550 -30z"/>
<path d="M4720 1550 c0 -21 21 -30 70 -30 l70 0 0 -560 0 -560 -70 0 c-49 0
-70 -9 -70 -30 0 -24 33 -30 180 -30 147 0 180 6 180 30 0 22 -22 30 -80 30
l-80 0 0 503 0 503 56 -78 c30 -43 198 -283 372 -533 420 -602 392 -611 392
134 l0 589 70 6 c145 13 77 46 -105 52 -156 5 -185 1 -185 -25 0 -23 21 -31
80 -31 l80 0 -1 -355 c0 -323 -3 -351 -31 -315 -17 22 -139 195 -270 385
l-240 345 -209 0 c-172 0 -209 -5 -209 -30z"/>
</g>
</svg>
