<?xml version="1.0" standalone="no"?>
<!DOCTYPE svg PUBLIC "-//W3C//DTD SVG 20010904//EN"
 "http://www.w3.org/TR/2001/REC-SVG-20010904/DTD/svg10.dtd">
<svg version="1.0" xmlns="http://www.w3.org/2000/svg"
 width="300.000000pt" height="300.000000pt" viewBox="0 0 300.000000 300.000000"
 preserveAspectRatio="xMidYMid meet">
<metadata>
Created by potrace 1.10, written by Peter Selinger 2001-2011
</metadata>
<g transform="translate(0.000000,97.000000) scale(0.050000,-0.050000)"
fill="#ffffff" stroke="none">
<path d="M125 1555 c4 -14 44 -28 87 -31 l79 -6 239 -589 c132 -324 248 -586
259 -583 11 4 51 84 90 178 39 95 148 357 241 584 l170 411 85 1 c62 0 85 8
85 30 0 25 -34 30 -190 30 -156 0 -190 -5 -190 -30 0 -21 21 -30 72 -30 39 0
68 -8 65 -18 -80 -212 -327 -798 -334 -792 -5 5 -78 187 -163 404 l-154 396
87 6 c60 4 87 15 87 35 0 24 -53 29 -312 29 -240 0 -309 -6 -303 -25z"/>
<path d="M1520 1550 c0 -22 22 -30 80 -30 l80 0 0 -559 0 -559 -80 -6 c-45 -3
-81 -15 -80 -26 0 -31 584 -27 595 5 6 18 -19 25 -83 25 l-92 0 0 559 0 559
83 6 c46 3 88 17 92 31 6 19 -61 25 -293 25 -255 0 -302 -5 -302 -30z"/>
<path d="M2165 1555 c4 -14 38 -29 75 -35 61 -9 83 -36 263 -320 234 -369 226
-309 62 -496 -75 -85 -161 -188 -193 -229 -48 -64 -68 -75 -134 -75 -56 0 -78
-8 -78 -30 0 -25 34 -30 190 -30 198 0 289 49 117 64 l-73 6 128 150 c70 83
149 177 174 210 26 33 51 50 56 39 5 -12 63 -105 128 -206 142 -220 139 -203
40 -203 -58 0 -80 -8 -80 -31 0 -40 621 -35 635 6 6 17 -16 25 -68 25 l-77 0
-203 323 -203 323 123 142 c68 78 158 184 200 236 61 76 90 95 148 100 162 14
92 56 -93 56 -148 0 -182 -6 -182 -30 0 -20 20 -30 62 -30 l62 0 -62 -75 c-34
-41 -109 -135 -167 -209 -130 -166 -106 -172 -252 65 -144 236 -139 215 -60
223 35 3 68 17 72 31 6 19 -63 25 -305 25 -242 0 -311 -6 -305 -25z"/>
<path d="M3520 1550 c0 -22 23 -30 90 -30 l91 0 -6 -555 -5 -555 -85 -6 c-58
-4 -85 -16 -85 -35 0 -25 85 -29 560 -29 l560 0 3 180 c2 99 4 191 5 205 5 59
-54 18 -79 -54 -67 -195 -191 -271 -443 -271 l-166 0 0 290 0 290 91 0 c110 0
174 -54 211 -178 51 -171 78 -102 78 198 0 304 -29 372 -80 189 -32 -113 -82
-149 -204 -149 l-96 0 0 242 0 242 198 -7 c224 -8 336 -62 400 -192 33 -66
118 -97 94 -33 -7 17 -12 89 -12 160 l0 128 -560 0 c-484 0 -560 -4 -560 -30z"/>
<path d="M4705 1555 c4 -14 41 -28 82 -31 l73 -6 0 -559 0 -559 -82 0 c-56 0
-79 -8 -73 -25 10 -31 375 -36 375 -5 1 11 -35 23 -80 26 l-80 6 0 454 c0 250
-6 474 -13 499 -28 106 44 16 390 -485 263 -380 377 -530 405 -530 37 0 38 23
38 590 l0 590 80 0 c58 0 80 8 80 30 0 25 -34 30 -190 30 -156 0 -190 -5 -190
-30 0 -22 22 -30 80 -30 l80 0 0 -285 c0 -157 6 -319 13 -360 20 -125 -12 -89
-289 316 l-267 389 -220 0 c-167 0 -218 -6 -212 -25z"/>
</g>
</svg>
