<?xml version="1.0" encoding="UTF-8"?>
<!DOCTYPE svg PUBLIC "-//W3C//DTD SVG 1.1//EN" "http://www.w3.org/Graphics/SVG/1.1/DTD/svg11.dtd">
<svg xmlns="http://www.w3.org/2000/svg" version="1.1" width="500px" height="500px" style="shape-rendering:geometricPrecision; text-rendering:geometricPrecision; image-rendering:optimizeQuality; fill-rule:evenodd; clip-rule:evenodd" xmlns:xlink="http://www.w3.org/1999/xlink">
<g><path style="opacity:1" fill="#000000" d="M -0.5,-0.5 C 166.167,-0.5 332.833,-0.5 499.5,-0.5C 499.5,166.167 499.5,332.833 499.5,499.5C 332.833,499.5 166.167,499.5 -0.5,499.5C -0.5,332.833 -0.5,166.167 -0.5,-0.5 Z"/></g>
<g><path style="opacity:1" fill="#f7f7f7" d="M 74.5,142.5 C 70.2853,144.436 65.6186,145.103 60.5,144.5C 60.2627,145.791 60.596,146.791 61.5,147.5C 70.5946,169.361 79.4279,191.361 88,213.5C 88.2784,212.584 88.7784,211.918 89.5,211.5C 90.9245,209.969 91.5912,210.302 91.5,212.5C 87.9884,221.519 84.4884,230.519 81,239.5C 80.1072,240.711 79.2739,240.711 78.5,239.5C 65.685,208.589 53.0184,177.589 40.5,146.5C 36.2172,145.508 31.8839,145.174 27.5,145.5C 27.5,144.5 27.5,143.5 27.5,142.5C 43.1667,142.5 58.8333,142.5 74.5,142.5 Z"/></g>
<g><path style="opacity:1" fill="#f1f1f1" d="M 136.5,142.5 C 151.833,142.5 167.167,142.5 182.5,142.5C 182.5,143.5 182.5,144.5 182.5,145.5C 178.5,145.5 174.5,145.5 170.5,145.5C 170.5,176.167 170.5,206.833 170.5,237.5C 174.5,237.5 178.5,237.5 182.5,237.5C 182.5,238.5 182.5,239.5 182.5,240.5C 167.167,240.5 151.833,240.5 136.5,240.5C 136.5,239.5 136.5,238.5 136.5,237.5C 140.5,237.5 144.5,237.5 148.5,237.5C 148.5,206.833 148.5,176.167 148.5,145.5C 144.5,145.5 140.5,145.5 136.5,145.5C 136.5,144.5 136.5,143.5 136.5,142.5 Z"/></g>
<g><path style="opacity:1" fill="#f7f7f7" d="M 186.5,142.5 C 201.833,142.5 217.167,142.5 232.5,142.5C 229.109,144.125 225.442,145.125 221.5,145.5C 228.681,157.875 236.348,169.875 244.5,181.5C 245.338,181.842 245.672,182.508 245.5,183.5C 256.228,201.279 267.228,218.945 278.5,236.5C 281.768,237.487 285.102,237.82 288.5,237.5C 273.202,239.484 257.536,240.151 241.5,239.5C 245.084,237.882 249.084,236.882 253.5,236.5C 246.562,224.741 239.062,213.408 231,202.5C 221.003,213.665 211.17,224.999 201.5,236.5C 205.445,237.491 209.445,237.824 213.5,237.5C 213.5,238.5 213.5,239.5 213.5,240.5C 204.5,240.5 195.5,240.5 186.5,240.5C 186.5,239.5 186.5,238.5 186.5,237.5C 190.226,237.823 193.893,237.489 197.5,236.5C 208.543,224.126 219.209,211.46 229.5,198.5C 218.392,180.599 207.058,162.932 195.5,145.5C 192.203,145.11 189.203,144.11 186.5,142.5 Z"/></g>
<g><path style="opacity:1" fill="#f7f7f7" d="M 293.5,142.5 C 322.833,142.5 352.167,142.5 381.5,142.5C 381.5,150.5 381.5,158.5 381.5,166.5C 378.464,165.188 376.298,162.854 375,159.5C 368.826,151.33 360.659,146.663 350.5,145.5C 342.684,144.508 334.684,144.174 326.5,144.5C 326.5,158.5 326.5,172.5 326.5,186.5C 331.363,186.819 336.03,186.486 340.5,185.5C 343.343,184.828 345.843,183.495 348,181.5C 350.436,177.107 352.27,172.44 353.5,167.5C 354.325,166.614 355.325,166.281 356.5,166.5C 356.5,180.833 356.5,195.167 356.5,209.5C 355.325,209.719 354.325,209.386 353.5,208.5C 352.683,202.871 350.516,197.871 347,193.5C 344.297,191.098 341.13,189.765 337.5,189.5C 334.038,188.518 330.371,188.185 326.5,188.5C 326.5,204.833 326.5,221.167 326.5,237.5C 335.349,237.826 344.016,237.493 352.5,236.5C 366.826,233.673 375.326,225.006 378,210.5C 379.011,209.663 380.178,209.33 381.5,209.5C 381.5,219.5 381.5,229.5 381.5,239.5C 351.814,240.159 322.481,239.492 293.5,237.5C 297.5,237.5 301.5,237.5 305.5,237.5C 305.5,206.833 305.5,176.167 305.5,145.5C 301.232,145.131 297.232,144.131 293.5,142.5 Z"/></g>
<g><path style="opacity:1" fill="#f5f5f5" d="M 385.5,142.5 C 396.853,142.168 408.186,142.501 419.5,143.5C 433.859,164.185 448.192,184.851 462.5,205.5C 462.56,206.043 462.893,206.376 463.5,206.5C 464.5,185.844 464.833,165.177 464.5,144.5C 459.833,144.5 455.167,144.5 450.5,144.5C 459.44,142.528 468.773,141.861 478.5,142.5C 475.109,144.125 471.442,145.125 467.5,145.5C 466.502,176.662 466.168,207.996 466.5,239.5C 464.833,239.5 463.167,239.5 461.5,239.5C 441.532,211.19 421.532,182.857 401.5,154.5C 401.44,153.957 401.107,153.624 400.5,153.5C 399.171,181.664 399.171,209.664 400.5,237.5C 404.833,237.5 409.167,237.5 413.5,237.5C 413.5,238.5 413.5,239.5 413.5,240.5C 404.167,240.5 394.833,240.5 385.5,240.5C 385.5,239.5 385.5,238.5 385.5,237.5C 389.167,237.5 392.833,237.5 396.5,237.5C 396.5,206.833 396.5,176.167 396.5,145.5C 392.558,145.125 388.891,144.125 385.5,142.5 Z"/></g>
<g><path style="opacity:1" fill="#7c7c7c" d="M 74.5,142.5 C 75.404,143.209 75.7373,144.209 75.5,145.5C 70.3814,144.897 65.7147,145.564 61.5,147.5C 60.596,146.791 60.2627,145.791 60.5,144.5C 65.6186,145.103 70.2853,144.436 74.5,142.5 Z"/></g>
<g><path style="opacity:1" fill="#7a7a7a" d="M 105.5,142.5 C 108.891,144.125 112.558,145.125 116.5,145.5C 112.5,145.5 108.5,145.5 104.5,145.5C 104.263,144.209 104.596,143.209 105.5,142.5 Z"/></g>
<g><path style="opacity:1" fill="#787878" d="M 186.5,142.5 C 189.203,144.11 192.203,145.11 195.5,145.5C 192.167,145.5 188.833,145.5 185.5,145.5C 185.263,144.209 185.596,143.209 186.5,142.5 Z"/></g>
<g><path style="opacity:1" fill="#7b7b7b" d="M 232.5,142.5 C 233.404,143.209 233.737,144.209 233.5,145.5C 229.5,145.5 225.5,145.5 221.5,145.5C 225.442,145.125 229.109,144.125 232.5,142.5 Z"/></g>
<g><path style="opacity:1" fill="#7e7e7e" d="M 293.5,142.5 C 297.232,144.131 301.232,145.131 305.5,145.5C 301.167,145.5 296.833,145.5 292.5,145.5C 292.263,144.209 292.596,143.209 293.5,142.5 Z"/></g>
<g><path style="opacity:1" fill="#7a7a7a" d="M 385.5,142.5 C 388.891,144.125 392.558,145.125 396.5,145.5C 392.5,145.5 388.5,145.5 384.5,145.5C 384.263,144.209 384.596,143.209 385.5,142.5 Z"/></g>
<g><path style="opacity:1" fill="#7f7f7f" d="M 478.5,142.5 C 479.404,143.209 479.737,144.209 479.5,145.5C 475.5,145.5 471.5,145.5 467.5,145.5C 471.442,145.125 475.109,144.125 478.5,142.5 Z"/></g>
<g><path style="opacity:1" fill="#dbdbdb" d="M 245.5,183.5 C 245.672,182.508 245.338,181.842 244.5,181.5C 253.954,169.541 263.621,157.707 273.5,146C 270.183,145.502 266.85,145.335 263.5,145.5C 263.5,144.5 263.5,143.5 263.5,142.5C 272.167,142.5 280.833,142.5 289.5,142.5C 289.5,143.5 289.5,144.5 289.5,145.5C 285.445,145.176 281.445,145.509 277.5,146.5C 267.052,159.092 256.385,171.425 245.5,183.5 Z"/></g>
<g><path style="opacity:1" fill="#aeaeae" d="M 467.5,145.5 C 467.5,177.167 467.5,208.833 467.5,240.5C 465.265,240.795 463.265,240.461 461.5,239.5C 463.167,239.5 464.833,239.5 466.5,239.5C 466.168,207.996 466.502,176.662 467.5,145.5 Z"/></g>
<g><path style="opacity:1" fill="#6f6f6f" d="M 450.5,144.5 C 455.167,144.5 459.833,144.5 464.5,144.5C 464.833,165.177 464.5,185.844 463.5,206.5C 462.893,206.376 462.56,206.043 462.5,205.5C 463.497,185.674 463.83,165.674 463.5,145.5C 458.968,145.818 454.634,145.485 450.5,144.5 Z"/></g>
<g><path style="opacity:1" fill="#5e5e5e" d="M 350.5,145.5 C 342.833,145.5 335.167,145.5 327.5,145.5C 327.5,158.833 327.5,172.167 327.5,185.5C 331.833,185.5 336.167,185.5 340.5,185.5C 336.03,186.486 331.363,186.819 326.5,186.5C 326.5,172.5 326.5,158.5 326.5,144.5C 334.684,144.174 342.684,144.508 350.5,145.5 Z"/></g>
<g><path style="opacity:1" fill="#777777" d="M 401.5,154.5 C 400.502,181.995 400.169,209.662 400.5,237.5C 399.171,209.664 399.171,181.664 400.5,153.5C 401.107,153.624 401.44,153.957 401.5,154.5 Z"/></g>
<g><path style="opacity:1" fill="#dbdbdb" d="M 105.5,142.5 C 114.5,142.5 123.5,142.5 132.5,142.5C 132.5,143.5 132.5,144.5 132.5,145.5C 128.116,145.174 123.783,145.508 119.5,146.5C 110.091,168.63 100.758,190.63 91.5,212.5C 91.5912,210.302 90.9245,209.969 89.5,211.5C 98.1104,189.334 107.11,167.334 116.5,145.5C 112.558,145.125 108.891,144.125 105.5,142.5 Z"/></g>
<g><path style="opacity:1" fill="#4a4a4a" d="M 337.5,189.5 C 334.167,189.5 330.833,189.5 327.5,189.5C 327.5,205.167 327.5,220.833 327.5,236.5C 335.833,236.5 344.167,236.5 352.5,236.5C 344.016,237.493 335.349,237.826 326.5,237.5C 326.5,221.167 326.5,204.833 326.5,188.5C 330.371,188.185 334.038,188.518 337.5,189.5 Z"/></g>
<g><path style="opacity:1" fill="#7b7b7b" d="M 288.5,237.5 C 289.404,238.209 289.737,239.209 289.5,240.5C 273.325,240.83 257.325,240.496 241.5,239.5C 257.536,240.151 273.202,239.484 288.5,237.5 Z"/></g>
<g><path style="opacity:1" fill="#797979" d="M 293.5,237.5 C 322.481,239.492 351.814,240.159 381.5,239.5C 352.005,240.498 322.338,240.831 292.5,240.5C 292.263,239.209 292.596,238.209 293.5,237.5 Z"/></g>
<g><path style="opacity:1" fill="#f0f0f0" d="M 356.5,265.5 C 359.488,265.155 360.821,266.488 360.5,269.5C 360.237,272.028 359.404,274.361 358,276.5C 349.245,289.011 340.245,301.344 331,313.5C 328.5,317.833 326,322.167 323.5,326.5C 324,326.833 324.5,327.167 325,327.5C 331.544,323.797 337.377,319.131 342.5,313.5C 343.521,314.002 343.688,314.668 343,315.5C 338.425,321.373 332.925,326.206 326.5,330C 320.669,331.666 318.002,329.499 318.5,323.5C 313.563,325.631 308.563,327.798 303.5,330C 295.805,331.509 292.972,328.342 295,320.5C 299.129,311.405 305.629,304.572 314.5,300C 320.92,298.416 323.087,300.583 321,306.5C 316.409,312.213 310.576,316.046 303.5,318C 300.617,320.602 298.95,323.768 298.5,327.5C 300.527,327.662 302.527,327.495 304.5,327C 327.441,311.227 344.774,290.727 356.5,265.5 Z"/></g>
<g><path style="opacity:1" fill="#efefef" d="M 239.5,264.5 C 245,263.831 247.167,266.165 246,271.5C 243.207,278.959 239.54,285.959 235,292.5C 224.879,302.753 216.212,314.087 209,326.5C 208.506,328.134 208.34,329.801 208.5,331.5C 213.358,330.404 217.691,328.238 221.5,325C 229.244,317.963 235.911,310.129 241.5,301.5C 242.318,304.107 242.818,306.774 243,309.5C 246.552,306.281 250.385,303.448 254.5,301C 261.077,299.409 263.244,301.909 261,308.5C 256.957,314.753 252.79,320.92 248.5,327C 249,327.167 249.5,327.333 250,327.5C 258.709,321.799 266.543,314.965 273.5,307C 277.469,303.863 281.803,301.363 286.5,299.5C 289.235,301.125 292.235,301.792 295.5,301.5C 294.046,308.743 291.212,315.41 287,321.5C 278.68,333.966 269.513,345.799 259.5,357C 252.728,362.944 245.061,364.611 236.5,362C 233.793,360.136 232.959,357.636 234,354.5C 236.277,350.036 239.777,347.369 244.5,346.5C 243.296,350.758 241.629,354.925 239.5,359C 240.098,360.301 241.098,361.135 242.5,361.5C 244.541,360.764 246.541,359.931 248.5,359C 261.678,349.016 271.845,336.849 279,322.5C 275.252,326.081 271.085,329.081 266.5,331.5C 264.025,329.23 262.025,326.563 260.5,323.5C 256.415,327.372 251.749,329.872 246.5,331C 243.903,328.683 243.07,325.85 244,322.5C 247.902,315.928 252.569,309.928 258,304.5C 258.749,303.365 258.583,302.365 257.5,301.5C 254.696,303.138 252.029,304.971 249.5,307C 242.649,315.352 234.982,322.852 226.5,329.5C 225.5,328.833 224.5,328.167 223.5,327.5C 219.37,330.898 214.703,333.232 209.5,334.5C 204.876,333.869 202.876,331.203 203.5,326.5C 203.93,321.303 205.764,316.636 209,312.5C 219.333,300.167 229.667,287.833 240,275.5C 242.099,273.026 242.599,270.359 241.5,267.5C 228.929,276.235 217.762,286.568 208,298.5C 207.662,303.547 206.995,308.547 206,313.5C 205.581,314.672 204.915,315.672 204,316.5C 204.37,311.862 204.87,307.195 205.5,302.5C 204.448,302.351 203.448,302.517 202.5,303C 193.6,314.61 182.6,323.61 169.5,330C 153.995,336.141 146.495,330.974 147,314.5C 153.279,300.925 163.779,292.425 178.5,289C 188.631,286.765 197.631,288.932 205.5,295.5C 213.986,287.514 222.319,279.348 230.5,271C 233.567,268.812 236.567,266.645 239.5,264.5 Z"/></g>
<g><path style="opacity:1" fill="#050505" d="M 182.5,291.5 C 188.892,290.791 194.892,291.957 200.5,295C 201.846,297.794 201.346,300.294 199,302.5C 187.468,314.034 174.302,323.201 159.5,330C 153.621,331.46 150.621,329.127 150.5,323C 152.549,311.273 158.882,302.607 169.5,297C 173.893,295.044 178.226,293.211 182.5,291.5 Z"/></g>
<g><path style="opacity:1" fill="#111111" d="M 286.5,303.5 C 287.5,303.5 288.5,303.5 289.5,303.5C 286.057,314.948 278.723,322.948 267.5,327.5C 266.833,327.167 266.167,326.833 265.5,326.5C 270.791,317.212 277.791,309.545 286.5,303.5 Z"/></g>
<g><path style="opacity:1" fill="#151515" d="M 316.5,304.5 C 318.028,304.517 318.528,305.184 318,306.5C 315.273,309.731 312.106,312.397 308.5,314.5C 307.479,313.998 307.312,313.332 308,312.5C 310.729,309.601 313.562,306.934 316.5,304.5 Z"/></g>
</svg>
